<?xml version="1.0" encoding="UTF-8" standalone="no"?>
<svg
   xmlns:osb="http://www.openswatchbook.org/uri/2009/osb"
   xmlns:dc="http://purl.org/dc/elements/1.1/"
   xmlns:cc="http://creativecommons.org/ns#"
   xmlns:rdf="http://www.w3.org/1999/02/22-rdf-syntax-ns#"
   xmlns:svg="http://www.w3.org/2000/svg"
   xmlns="http://www.w3.org/2000/svg"
   xmlns:xlink="http://www.w3.org/1999/xlink"
   xmlns:sodipodi="http://sodipodi.sourceforge.net/DTD/sodipodi-0.dtd"
   xmlns:inkscape="http://www.inkscape.org/namespaces/inkscape"
   version="1.1"
   x="0px"
   y="0px"
   viewBox="0 0 170.83263 171.27379"
   enable-background="new 0 0 100 100"
   xml:space="preserve"
   id="svg3803"
   sodipodi:docname="kpss.svg"
   inkscape:export-filename="/home/z/Pictures/kpss/kpss-1.svg.png"
   inkscape:export-xdpi="550"
   inkscape:export-ydpi="550"
   inkscape:version="0.92.2 2405546, 2018-03-11"
   width="170.83263"
   height="171.27379"><metadata
     id="metadata3809"><rdf:RDF><cc:Work
         rdf:about=""><dc:format>image/svg+xml</dc:format><dc:type
           rdf:resource="http://purl.org/dc/dcmitype/StillImage" /><dc:title></dc:title></cc:Work></rdf:RDF></metadata><defs
     id="defs3807"><linearGradient
       id="linearGradient4997"
       osb:paint="solid"><stop
         style="stop-color:#42eefa;stop-opacity:1;"
         offset="0"
         id="stop4995" /></linearGradient><linearGradient
       id="linearGradient4979"
       osb:paint="solid"><stop
         style="stop-color:#fa8e41;stop-opacity:1;"
         offset="0"
         id="stop4977" /></linearGradient><linearGradient
       id="linearGradient4973"
       osb:paint="solid"><stop
         style="stop-color:#ce91fa;stop-opacity:1;"
         offset="0"
         id="stop4971" /></linearGradient><linearGradient
       inkscape:collect="always"
       xlink:href="#linearGradient4973"
       id="linearGradient4975"
       x1="39.083"
       y1="50"
       x2="60.917"
       y2="50"
       gradientUnits="userSpaceOnUse" /><linearGradient
       inkscape:collect="always"
       xlink:href="#linearGradient4979"
       id="linearGradient4981"
       x1="-0.58823526"
       y1="55.441177"
       x2="79.411766"
       y2="55.441177"
       gradientUnits="userSpaceOnUse" /><linearGradient
       inkscape:collect="always"
       xlink:href="#linearGradient4997"
       id="linearGradient4999"
       x1="6"
       y1="30"
       x2="54"
       y2="30"
       gradientUnits="userSpaceOnUse" /><linearGradient
       inkscape:collect="always"
       xlink:href="#linearGradient4973"
       id="linearGradient850"
       gradientUnits="userSpaceOnUse"
       x1="39.083"
       y1="50"
       x2="60.917"
       y2="50" /><linearGradient
       inkscape:collect="always"
       xlink:href="#linearGradient4973"
       id="linearGradient852"
       gradientUnits="userSpaceOnUse"
       x1="39.083"
       y1="50"
       x2="60.917"
       y2="50" /><linearGradient
       inkscape:collect="always"
       xlink:href="#linearGradient4973"
       id="linearGradient854"
       gradientUnits="userSpaceOnUse"
       x1="39.083"
       y1="50"
       x2="60.917"
       y2="50" /><linearGradient
       inkscape:collect="always"
       xlink:href="#linearGradient4979"
       id="linearGradient856"
       gradientUnits="userSpaceOnUse"
       x1="-0.58823526"
       y1="55.441177"
       x2="79.411766"
       y2="55.441177" /><linearGradient
       inkscape:collect="always"
       xlink:href="#linearGradient4979"
       id="linearGradient858"
       gradientUnits="userSpaceOnUse"
       x1="-0.58823526"
       y1="55.441177"
       x2="79.411766"
       y2="55.441177" /><linearGradient
       inkscape:collect="always"
       xlink:href="#linearGradient4979"
       id="linearGradient860"
       gradientUnits="userSpaceOnUse"
       x1="-0.58823526"
       y1="55.441177"
       x2="79.411766"
       y2="55.441177" /><linearGradient
       inkscape:collect="always"
       xlink:href="#linearGradient4997"
       id="linearGradient862"
       gradientUnits="userSpaceOnUse"
       x1="6"
       y1="30"
       x2="54"
       y2="30" /><linearGradient
       inkscape:collect="always"
       xlink:href="#linearGradient4997"
       id="linearGradient864"
       gradientUnits="userSpaceOnUse"
       x1="6"
       y1="30"
       x2="54"
       y2="30" /><linearGradient
       inkscape:collect="always"
       xlink:href="#linearGradient4997"
       id="linearGradient866"
       gradientUnits="userSpaceOnUse"
       x1="6"
       y1="30"
       x2="54"
       y2="30" /><linearGradient
       inkscape:collect="always"
       xlink:href="#linearGradient4997"
       id="linearGradient868"
       gradientUnits="userSpaceOnUse"
       x1="6"
       y1="30"
       x2="54"
       y2="30" /><linearGradient
       inkscape:collect="always"
       xlink:href="#linearGradient4997"
       id="linearGradient870"
       gradientUnits="userSpaceOnUse"
       x1="6"
       y1="30"
       x2="54"
       y2="30" /></defs><sodipodi:namedview
     pagecolor="#ffffff"
     bordercolor="#666666"
     borderopacity="1"
     objecttolerance="10"
     gridtolerance="10"
     guidetolerance="10"
     inkscape:pageopacity="0"
     inkscape:pageshadow="2"
     inkscape:window-width="1920"
     inkscape:window-height="1052"
     id="namedview3805"
     showgrid="true"
     showguides="true"
     inkscape:snap-nodes="false"
     inkscape:snap-others="false"
     inkscape:snap-grids="false"
     inkscape:snap-to-guides="false"
     inkscape:snap-global="false"
     inkscape:zoom="3.4"
     inkscape:cx="44.30313"
     inkscape:cy="76.754498"
     inkscape:window-x="0"
     inkscape:window-y="0"
     inkscape:window-maximized="1"
     inkscape:current-layer="g4120"
     fit-margin-top="5"
     fit-margin-left="0"
     fit-margin-right="5"
     fit-margin-bottom="0"><inkscape:grid
       type="xygrid"
       id="grid4143"
       originx="32.714976"
       originy="16.244404" /></sodipodi:namedview><rect
     width="100"
     height="100"
     id="rect3789"
     x="32.714973"
     y="30.029411"
     style="fill:none" /><g
     id="g3797"
     transform="matrix(1.092863,0,0,1.092863,-10.761896,-8.76483)"
     style="fill:url(#linearGradient4975);fill-opacity:1"><path
       d="m 39.083,49.333 v 31.5 c 0,2.762 2.239,5 5,5 h 11.834 c 2.762,0 5,-2.238 5,-5 v -31.5 z"
       id="path3791"
       inkscape:connector-curvature="0"
       style="fill:url(#linearGradient850);fill-opacity:1" /><rect
       x="40.75"
       y="36.5"
       width="18.5"
       height="10.833"
       id="rect3793"
       style="fill:url(#linearGradient852);fill-opacity:1" /><polygon
       points="56.667,34.5 43.333,34.5 43.333,14.167 56.667,18.833 "
       id="polygon3795"
       style="fill:url(#linearGradient854);fill-opacity:1" /></g><g
     id="g3957"
     transform="translate(86.420855,-10.441177)"
     style="fill:url(#linearGradient4981);fill-opacity:1"><path
       id="path3934"
       d="m 39.411765,15.441177 c -22.05615,0 -40.00000025,17.94434 -40.00000025,40 0,22.05566 17.94385025,40.000001 40.00000025,40.000001 22.05615,0 40,-17.944341 40,-40.000001 0,-22.05566 -17.94385,-40 -40,-40 z m 0,78.000001 c -20.95312,0 -38.0000004,-17.046881 -38.0000004,-38.000001 0,-20.95312 17.0468804,-38 38.0000004,-38 20.95312,0 38,17.04688 38,38 0,20.95312 -17.04688,38.000001 -38,38.000001 z"
       inkscape:connector-curvature="0"
       style="fill:url(#linearGradient856);fill-opacity:1" /><path
       id="path3936"
       d="m 63.220355,31.633557 c -1.31055,-1.31055 -3.1665,-1.72754 -4.96094,-2.13086 -1.22266,-0.27539 -2.37793,-0.53516 -3.26709,-1.04883 -0.86475,-0.50098 -1.65283,-1.36035 -2.4873,-2.27148 -1.25439,-1.36914 -2.55127,-2.78418 -4.37744,-3.27148 -1.74854,-0.4668 -3.54492,0.09277 -5.28125,0.63379 -1.21826,0.37988 -2.36865,0.73925 -3.43457,0.73925 -1.06592,0 -2.21631,-0.35938 -3.43457,-0.73926 -1.73633,-0.54199 -3.53272,-1.10351 -5.28076,-0.63378 -1.82666,0.4873 -3.12354,1.90332 -4.37793,3.27246 -0.83447,0.91016 -1.62207,1.76953 -2.48682,2.27051 -0.88916,0.51367 -2.04443,0.77344 -3.26709,1.04785 -1.79443,0.40332 -3.65039,0.82031 -4.96094,2.13086 -1.31055,1.31055 -1.72754,3.16602 -2.13086,4.95996 -0.27441,1.22363 -0.53418,2.37891 -1.04883,3.26758 -0.50049,0.86523 -1.35986,1.65234 -2.27002,2.4873 -1.3691404,1.25391 -2.7846704,2.55176 -3.2729504,4.37891 -0.46777,1.74902 0.09277,3.54395 0.63428,5.28027 0.38038,1.21777 0.73926,2.36914 0.73926,3.43457 0,1.06543 -0.35889,2.2168 -0.73926,3.43457 -0.5415,1.73633 -1.10205,3.53125 -0.63428,5.28027 0.48828,1.82715 1.90332,3.12402 3.2719704,4.37793 0.91064,0.83496 1.77051,1.62305 2.271,2.48828 0.51465,0.88867 0.77393,2.04395 1.04834,3.2666 0.40332,1.79395 0.82031,3.65039 2.13086,4.95996 1.31055,1.31055 3.1665,1.72754 4.96094,2.13086 1.22266,0.27539 2.37793,0.53516 3.26709,1.04883 0.86475,0.50098 1.65283,1.36035 2.4873,2.27148 1.25439,1.369141 2.55127,2.784181 4.37744,3.271481 1.75098,0.46875 3.54492,-0.0918 5.28125,-0.63379 1.21827,-0.37987 2.36866,-0.73924 3.43458,-0.73924 1.06592,0 2.21631,0.35938 3.43457,0.73926 1.28027,0.39941 2.59229,0.80859 3.89453,0.80859 0.46387,0 0.92676,-0.0518 1.38623,-0.1748 1.82666,-0.4873 3.12354,-1.90332 4.37793,-3.272461 0.83447,-0.91016 1.62207,-1.76953 2.48682,-2.27051 0.88916,-0.51367 2.04443,-0.77344 3.26709,-1.04785 1.79443,-0.40332 3.65039,-0.82031 4.96094,-2.13086 1.31055,-1.31055 1.72754,-3.16602 2.13086,-4.95996 0.27441,-1.22363 0.53418,-2.37891 1.04883,-3.26758 0.50049,-0.86523 1.35986,-1.65234 2.27002,-2.4873 1.36914,-1.25391 2.78467,-2.55176 3.27295,-4.37891 0.46777,-1.74902 -0.09277,-3.54395 -0.63428,-5.28027 -0.38038,-1.21778 -0.73926,-2.36915 -0.73926,-3.43458 0,-1.06543 0.35889,-2.2168 0.73926,-3.43457 0.5415,-1.73633 1.10205,-3.53125 0.63428,-5.28027 -0.48828,-1.82715 -1.90332,-3.12402 -3.27197,-4.37793 -0.91064,-0.83496 -1.77051,-1.62305 -2.271,-2.48828 -0.51465,-0.88867 -0.77393,-2.04395 -1.04834,-3.2666 -0.40333,-1.79395 -0.82032,-3.6504 -2.13087,-4.95997 z m 4.09864,12.18946 c 1.21045,1.1084 2.35352,2.15625 2.69092,3.41895 0.31836,1.19043 -0.13281,2.6377 -0.61084,4.16895 -0.40821,1.3076 -0.83008,2.65917 -0.83008,4.03026 0,1.37109 0.42188,2.72266 0.83008,4.03027 0.47803,1.53125 0.9292,2.97852 0.61084,4.16895 -0.3374,1.2627 -1.48096,2.31055 -2.69141,3.4209 -0.98145,0.89844 -1.99609,1.8291 -2.65039,2.95898 -0.66748,1.1543 -0.97314,2.51465 -1.26904,3.83105 -0.35645,1.58594 -0.69287,3.08398 -1.59326,3.98438 -0.90039,0.9004 -2.39893,1.2373 -3.98535,1.59375 -1.31543,0.29492 -2.67578,0.60059 -3.83008,1.26855 -1.13037,0.65332 -2.06055,1.66895 -2.95996,2.65039 -1.10889,1.21094 -2.15674,2.353521 -3.41943,2.691411 -1.18896,0.31836 -2.63672,-0.13379 -4.16895,-0.61133 -1.30762,-0.408201 -2.65967,-0.830071 -4.03028,-0.830071 -1.37061,0 -2.72266,0.42188 -4.03027,0.830081 -1.53174,0.47754 -2.97998,0.92871 -4.16943,0.61133 -1.26221,-0.33789 -2.30957,-1.480471 -3.41895,-2.691411 -0.89941,-0.98145 -1.83008,-1.99707 -2.96094,-2.65039 -1.15332,-0.66797 -2.51367,-0.97363 -3.8291,-1.26953 -1.58643,-0.35645 -3.08496,-0.69336 -3.98584,-1.59375 -0.90039,-0.90039 -1.23682,-2.39844 -1.59326,-3.98438 -0.29541,-1.31641 -0.60107,-2.67676 -1.26855,-3.83008 -0.6543,-1.13086 -1.66943,-2.06055 -2.65088,-2.96094 -1.21045,-1.1084 -2.3535204,-2.15625 -2.6909204,-3.41895 -0.31836,-1.19043 0.13281,-2.6377 0.61084,-4.16895 0.4082,-1.30762 0.8300804,-2.65918 0.8300804,-4.03027 0,-1.37109 -0.4218804,-2.72266 -0.8300804,-4.03027 -0.47803,-1.53125 -0.9292,-2.97852 -0.61084,-4.16895 0.3374,-1.2627 1.4809604,-2.31055 2.6914104,-3.4209 0.98145,-0.89844 1.99609,-1.8291 2.65039,-2.95898 0.66748,-1.1543 0.97314,-2.51465 1.26904,-3.83105 0.35645,-1.58594 0.69287,-3.08398 1.59326,-3.98438 0.90039,-0.9004 2.39893,-1.2373 3.98535,-1.59375 1.31543,-0.29492 2.67578,-0.60059 3.83008,-1.26855 1.13037,-0.65332 2.06055,-1.66895 2.95996,-2.65039 1.10889,-1.21094 2.15674,-2.35352 3.41943,-2.69141 1.18994,-0.31738 2.63721,0.13379 4.16895,0.61133 1.30762,0.4082 2.65967,0.83008 4.03027,0.83008 1.3706,0 2.72266,-0.42188 4.03027,-0.83008 1.53174,-0.47754 2.979,-0.92871 4.16943,-0.61133 1.26221,0.33789 2.30957,1.48047 3.41895,2.69141 0.89941,0.98145 1.83008,1.99707 2.96094,2.65039 1.15332,0.66797 2.51367,0.97363 3.8291,1.26953 1.58643,0.35645 3.08496,0.69336 3.98584,1.59375 0.90039,0.90039 1.23682,2.39844 1.59326,3.98438 0.29541,1.31641 0.60107,2.67676 1.26855,3.83008 0.6543,1.13086 1.66944,2.06055 2.65089,2.96094 z"
       inkscape:connector-curvature="0"
       style="fill:url(#linearGradient858);fill-opacity:1" /><path
       id="path3938"
       d="m 61.036765,54.441177 h -6.75 v -10.875 h 2.875 c 0.55225,0 1,-0.44727 1,-1 0,-0.55273 -0.44775,-1 -1,-1 h -2.875 v -2.625 c 0,-0.55273 -0.44775,-1 -1,-1 -0.55225,0 -1,0.44727 -1,1 v 2.625 h -11.875 v -7.75 c 0,-0.55273 -0.44775,-1 -1,-1 -0.55225,0 -1,0.44727 -1,1 v 7.75 h -11.875 v -2.625 c 0,-0.55273 -0.44775,-1 -1,-1 -0.55225,0 -1,0.44727 -1,1 v 2.625 h -2.875 c -0.55225,0 -1,0.44727 -1,1 0,0.55273 0.44775,1 1,1 h 2.875 v 10.875 h -6.75 c -0.55225,0 -1,0.44727 -1,1 0,0.55273 0.44775,1 1,1 h 6.75 v 10.875 h -2.875 c -0.55225,0 -1,0.44727 -1,1 0,0.55273 0.44775,1 1,1 h 2.875 v 2.625 c 0,0.55273 0.44775,1 1,1 0.55225,0 1,-0.44727 1,-1 v -2.625 h 11.875 v 7.75 c 0,0.55273 0.44775,1 1,1 0.55225,0 1,-0.44727 1,-1 v -7.75 h 11.875 v 2.625 c 0,0.55273 0.44775,1 1,1 0.55225,0 1,-0.44727 1,-1 v -2.625 h 2.875 c 0.55225,0 1,-0.44727 1,-1 0,-0.55273 -0.44775,-1 -1,-1 h -2.875 v -10.875 h 6.75 c 0.55225,0 1,-0.44727 1,-1 0,-0.55273 -0.44775,-1 -1,-1 z m -8.75,-10.875 v 10.875 h -11.875 v -10.875 z m -25.75,0 h 11.875 v 10.875 h -11.875 z m 0,23.75 v -10.875 h 11.875 v 10.875 z m 25.75,0 h -11.875 v -10.875 h 11.875 z"
       inkscape:connector-curvature="0"
       style="fill:url(#linearGradient860);fill-opacity:1" /></g><g
     id="g4045"
     transform="matrix(1.5269608,0,0,1.5269608,78.691314,82.520575)"
     style="fill:url(#linearGradient4999);fill-opacity:1"><path
       id="path4016"
       d="M 9.5683594,52.012207 H 11.714844 V 54 h 6.662109 V 52.012207 H 41.623047 V 54 h 6.662109 v -1.987793 h 2.146485 C 52.399414,52.012207 54,50.411621 54,48.443848 V 9.5683594 C 54,7.6005859 52.399414,6 50.431641,6 H 9.5683594 C 7.6005859,6 6,7.6005859 6,9.5683594 V 48.443848 c 0,1.967773 1.6005859,3.568359 3.5683594,3.568359 z M 8,9.5683594 C 8,8.7036133 8.7036133,8 9.5683594,8 H 50.431641 C 51.296875,8 52,8.7036133 52,9.5683594 V 48.443848 c 0,0.864746 -0.703125,1.568359 -1.568359,1.568359 H 9.5683594 C 8.7036133,50.012207 8,49.308594 8,48.443848 Z"
       inkscape:connector-curvature="0"
       style="fill:url(#linearGradient862);fill-opacity:1" /><path
       id="path4018"
       d="M 49,10.969727 H 11 V 47.041992 H 49 Z M 47,45.041992 H 13 V 12.969727 h 34 z"
       inkscape:connector-curvature="0"
       style="fill:url(#linearGradient864);fill-opacity:1" /><path
       id="path4020"
       d="m 31,38.433594 c 5.226562,0 9.478516,-4.229492 9.478516,-9.427735 0,-5.198242 -4.251954,-9.427246 -9.478516,-9.427246 -5.226563,0 -9.478516,4.229004 -9.478516,9.427246 0,5.198243 4.251953,9.427735 9.478516,9.427735 z m 0,-16.854981 c 4.124023,0 7.478516,3.332032 7.478516,7.427246 0,4.095703 -3.354493,7.427735 -7.478516,7.427735 -4.123535,0 -7.478516,-3.332032 -7.478516,-7.427735 0,-4.095215 3.354981,-7.427246 7.478516,-7.427246 z"
       inkscape:connector-curvature="0"
       style="fill:url(#linearGradient866);fill-opacity:1" /><path
       id="path4022"
       d="m 31,33.983398 c 2.757812,0 5.001953,-2.23291 5.001953,-4.977539 0,-2.744629 -2.244141,-4.977539 -5.001953,-4.977539 -2.757813,0 -5.001465,2.23291 -5.001465,4.977539 0,2.744629 2.243652,4.977539 5.001465,4.977539 z m 0,-7.955078 c 1.655273,0 3.001953,1.335938 3.001953,2.977539 0,1.641602 -1.34668,2.977539 -3.001953,2.977539 -1.654785,0 -3.001465,-1.335937 -3.001465,-2.977539 0,-1.641601 1.34668,-2.977539 3.001465,-2.977539 z"
       inkscape:connector-curvature="0"
       style="fill:url(#linearGradient868);fill-opacity:1" /><rect
       id="rect4024"
       height="6.512207"
       width="2"
       y="25.75"
       x="16.136719"
       style="fill:url(#linearGradient870);fill-opacity:1" /></g><g
     id="g4141"
     transform="matrix(0.87126736,0,0,0.87126736,0,84.147059)"><g
       id="g4120"
       style="fill:none;fill-rule:evenodd;stroke:none;stroke-width:1"><g
         id="g4118"><rect
           id="rect4112"
           height="100"
           width="100"
           y="0"
           x="0"
           style="opacity:0.40455238" /><rect
           id="rect4114"
           height="90"
           width="90"
           y="5"
           x="5"
           style="opacity:0.40455238" /><path
           id="path4116"
           d="M 95,56.5 C 95,65.612698 87.612698,73 78.5,73 H 70 c -1.104569,0 -2,-0.895431 -2,-2 0,-1.104569 0.895431,-2 2,-2 h 8.5 C 85.403559,69 91,63.403559 91,56.5 91,49.853282 85.79716,44.377559 79.190672,44.018705 l -2.389758,-0.129808 0.552199,-2.328706 C 77.781476,39.75372 78,37.89191 78,36 78,22.745166 67.254834,12 54,12 42.811757,12 33.179277,19.719172 30.64216,30.459781 L 30.278334,32 H 27.418033 C 17.223309,32 9,40.268914 9,50.581967 9,60.753966 17.246034,69 27.418033,69 H 29 c 1.104569,0 2,0.895431 2,2 0,1.104569 -0.895431,2 -2,2 H 27.418033 C 15.036895,73 5,62.963105 5,50.581967 5,38.151839 14.870348,28.14023 27.159268,28.00146 30.644178,16.27396 41.487107,8 54,8 69.463973,8 82,20.536027 82,36 82,37.451544 81.889375,38.889307 81.67093,40.304297 89.291645,41.786245 95,48.50003 95,56.5 Z M 48,49 c 2.209139,0 4,1.790861 4,4 v 12 h 7.225148 c 2.209139,0 4,1.790861 4,4 0,0.429928 -0.06931,0.857045 -0.205267,1.264911 L 56.529822,89.735089 C 55.879898,91.684862 54.055241,93 52,93 49.790861,93 48,91.209139 48,89 V 77 h -7.225148 c -2.209139,0 -4,-1.790861 -4,-4 0,-0.429928 0.06931,-0.857045 0.205267,-1.264911 L 43.470178,52.264911 C 44.120102,50.315138 45.944759,49 48,49 Z m 0,4 c -0.33352,0 -0.629621,0.213417 -0.735089,0.529822 L 40.774852,73 H 48 c 2.209139,0 4,1.790861 4,4 v 12 c 0.33352,0 0.629621,-0.213418 0.735089,-0.529822 L 59.225148,69 H 52 c -2.209139,0 -4,-1.790861 -4,-4 z"
           inkscape:connector-curvature="0"
           style="fill:#fa40c3;fill-opacity:1;fill-rule:nonzero" /></g></g></g></svg>